<svg width="30.000000" height="30.000000" viewBox="0 0 30 30" fill="none" xmlns="http://www.w3.org/2000/svg" xmlns:xlink="http://www.w3.org/1999/xlink">
	<desc>
			Created with Pixso.
	</desc>
	<defs/>
	<rect id="Icon/Outline/heart" width="30.000000" height="30.000000" fill="#FFFFFF" fill-opacity="0"/>
	<path id="Mask" d="M14.1159 25.8825C14.3496 26.1188 14.6684 26.25 14.9996 26.25C15.3321 26.25 15.6496 26.1188 15.8846 25.8837L25.5946 16.1575C28.1396 13.6075 28.1396 9.45874 25.5934 6.90875C24.3646 5.67877 22.7234 5 20.9759 5C19.2259 5 17.5859 5.67877 16.3559 6.90997L14.9996 8.26752L13.6434 6.90875C12.4146 5.67877 10.7734 5 9.02463 5C7.27588 5 5.63589 5.67877 4.40588 6.90875C1.86087 9.45874 1.86087 13.6075 4.40588 16.1575L14.1159 25.8825ZM9.02463 7.5C7.94464 7.5 6.93213 7.91748 6.17462 8.67627C4.60214 10.2512 4.60214 12.815 6.17587 14.3925L14.9996 23.2313L23.8246 14.3925C25.3984 12.815 25.3984 10.2512 23.8246 8.67627C22.3096 7.15747 19.6396 7.15997 18.1246 8.67627L15.8846 10.92C15.4146 11.3912 14.5846 11.3912 14.1146 10.92L11.8746 8.67499C11.1171 7.91748 10.1059 7.5 9.02463 7.5Z" clip-rule="evenodd" fill="#231F20" fill-opacity="1.000000" fill-rule="evenodd"/>
	<mask id="mask1_52" mask-type="alpha" maskUnits="userSpaceOnUse" x="2.497131" y="5.000000" width="25.006092" height="21.250000">
		<path id="Mask" d="M14.1159 25.8825C14.3496 26.1188 14.6684 26.25 14.9996 26.25C15.3321 26.25 15.6496 26.1188 15.8846 25.8837L25.5946 16.1575C28.1396 13.6075 28.1396 9.45874 25.5934 6.90875C24.3646 5.67877 22.7234 5 20.9759 5C19.2259 5 17.5859 5.67877 16.3559 6.90997L14.9996 8.26752L13.6434 6.90875C12.4146 5.67877 10.7734 5 9.02463 5C7.27588 5 5.63589 5.67877 4.40588 6.90875C1.86087 9.45874 1.86087 13.6075 4.40588 16.1575L14.1159 25.8825ZM9.02463 7.5C7.94464 7.5 6.93213 7.91748 6.17462 8.67627C4.60214 10.2512 4.60214 12.815 6.17587 14.3925L14.9996 23.2313L23.8246 14.3925C25.3984 12.815 25.3984 10.2512 23.8246 8.67627C22.3096 7.15747 19.6396 7.15997 18.1246 8.67627L15.8846 10.92C15.4146 11.3912 14.5846 11.3912 14.1146 10.92L11.8746 8.67499C11.1171 7.91748 10.1059 7.5 9.02463 7.5Z" clip-rule="evenodd" fill="#231F20" fill-opacity="1.000000" fill-rule="evenodd"/>
	</mask>
	<g mask="url(#mask1_52)">
		<rect id="🎨 Color" width="30.000000" height="30.000000" fill="#FFFFFF" fill-opacity="0"/>
		<rect id="Base" width="30.000000" height="30.000000" fill="#000000" fill-opacity="1.000000"/>
		<rect id="Base" width="30.000000" height="30.000000" stroke="#979797" stroke-opacity="0" stroke-width="0.000000"/>
	</g>
</svg>
